<?xml version="1.0" encoding="UTF-8"?>
<svg version="1.1" xmlns="http://www.w3.org/2000/svg" width="1024" height="1024">
<path d="M0 0 C337.92 0 675.84 0 1024 0 C1024 337.92 1024 675.84 1024 1024 C686.08 1024 348.16 1024 0 1024 C0 686.08 0 348.16 0 0 Z " fill="#FEFEFE" transform="translate(0,0)"/>
<path d="M0 0 C4.42093524 1.91256917 8.85047012 3.80507924 13.27850342 5.70114136 C14.59668564 6.26660423 14.59668564 6.26660423 15.9414978 6.8434906 C23.28949323 9.99277305 30.66555372 13.06798946 38.05975342 16.10739136 C49.71464093 20.90563867 61.33628533 25.77899109 72.94915771 30.67785645 C84.29460156 35.46380176 95.64831968 40.22932459 107.01043701 44.97555542 C113.32851249 47.61512174 119.64301915 50.26317861 125.95687866 52.91281128 C130.69182446 54.89885846 135.43073452 56.8748341 140.17471313 58.83920288 C142.82617594 59.93945899 145.47374568 61.04883172 148.12023926 62.16098022 C149.87816923 62.89622532 151.64101352 63.61968614 153.4039917 64.34274292 C154.43508057 64.77812378 155.46616943 65.21350464 156.52850342 65.66207886 C157.85398193 66.21291138 157.85398193 66.21291138 159.20623779 66.77487183 C161.74701351 68.22284677 162.93700614 69.54844619 164.43475342 72.04489136 C164.87225342 74.98239136 164.87225342 74.98239136 164.43475342 78.04489136 C160.43475342 83.04489136 160.43475342 83.04489136 139.43475342 92.04489136 C139.10475342 111.51489136 138.77475342 130.98489136 138.43475342 151.04489136 C139.75475342 151.70489136 141.07475342 152.36489136 142.43475342 153.04489136 C147.46236584 158.51611664 148.88721449 163.15339194 148.76678467 170.46676636 C148.22607242 174.66523794 146.47858712 179.00105766 143.43475342 182.04489136 C143.47488714 184.47761245 143.58483846 186.86924164 143.74725342 189.29489136 C143.7935791 190.04270874 143.83990479 190.79052612 143.88763428 191.56100464 C144.29055948 197.69477084 144.88425675 203.80416768 145.49725342 209.91989136 C147.3834017 229.32327039 147.3834017 229.32327039 144.74725342 234.10739136 C139.84577264 238.21403742 135.12557445 238.38401308 128.99725342 238.35739136 C128.25926514 238.37350464 127.52127686 238.38961792 126.76092529 238.40621948 C121.03818485 238.41130636 116.88605071 237.35138628 112.58319092 233.30270386 C107.75868659 223.81779399 112.07964038 207.09943538 113.36688232 197.04440308 C115.16592413 187.10353493 115.16592413 187.10353493 112.43475342 177.91989136 C109.20253695 172.75764635 109.47677148 166.89139876 110.43475342 161.04489136 C112.25961526 157.05022427 114.40151973 153.0615082 118.43475342 151.04489136 C118.76475342 134.21489136 119.09475342 117.38489136 119.43475342 100.04489136 C112.17475342 103.34489136 104.91475342 106.64489136 97.43475342 110.04489136 C93.19115116 111.89841878 88.94783274 113.73849005 84.68475342 115.54489136 C82.93241739 116.29190512 81.18008747 117.03893328 79.42790222 117.78630066 C78.16499412 118.32479388 76.9019405 118.86294595 75.63874817 119.40077209 C67.61160877 122.81850656 59.59447965 126.25959933 51.57620239 129.69805908 C48.87208628 130.85746302 46.16774335 132.0163362 43.46331787 133.17501831 C35.62871571 136.53173236 27.79446513 139.88924051 19.96342468 143.2542572 C16.83515664 144.59842727 13.70651293 145.94172171 10.57785034 147.28497314 C9.14281732 147.90139422 7.70797235 148.5182533 6.27334595 149.13562012 C-1.40258738 152.4387301 -9.0933704 155.70436139 -16.81134033 158.90817261 C-17.52717789 159.20741135 -18.24301544 159.50665009 -18.98054504 159.81495667 C-29.91469455 164.32976942 -40.50960951 164.52478267 -51.56280518 160.05001831 C-52.61548584 159.59457642 -53.6681665 159.13913452 -54.75274658 158.66989136 C-55.92144287 158.18802368 -57.09013916 157.70615601 -58.29425049 157.20968628 C-60.92698062 156.1234285 -63.55215534 155.02096273 -66.17315674 153.90670776 C-70.97351377 151.86677798 -75.79077629 149.86828672 -80.60821533 147.86911011 C-90.72539773 143.66373003 -100.82423171 139.41533546 -110.92022705 135.15939331 C-115.00919784 133.43646995 -119.09976007 131.71733721 -123.19024658 129.99801636 C-136.35731983 124.46182525 -149.51829451 118.91125738 -162.67462158 113.34957886 C-164.58949612 112.54032988 -166.50437243 111.73108511 -168.41925049 110.92184448 C-172.23976699 109.3072075 -176.05965451 107.69109371 -179.87921143 106.07418823 C-188.98423636 102.22305784 -198.09938799 98.40044485 -207.24493408 94.64645386 C-208.9225276 93.95583323 -210.60009974 93.26516067 -212.27764893 92.57443237 C-215.38628578 91.29485435 -218.49902671 90.02606747 -221.61456299 88.76339722 C-223.00453503 88.19225529 -224.39435549 87.62074429 -225.78399658 87.04879761 C-226.97960205 86.56225708 -228.17520752 86.07571655 -229.40704346 85.57443237 C-233.16782383 83.75305876 -236.64900015 81.87738422 -238.56524658 78.04489136 C-238.94024658 75.23239136 -238.94024658 75.23239136 -238.56524658 72.04489136 C-235.08062346 67.88177776 -231.70808711 65.92384947 -226.71368408 63.90817261 C-226.03968063 63.63170395 -225.36567719 63.35523529 -224.67124939 63.07038879 C-223.20517128 62.47081865 -221.73671678 61.87703356 -220.26620483 61.28842163 C-217.88001345 60.33328135 -215.50028245 59.36340273 -213.12164307 58.38961792 C-209.70185288 56.99035309 -206.27995445 55.59642663 -202.85675049 54.20553589 C-194.98158994 50.99823935 -187.14184384 47.70634953 -179.30096436 44.41635132 C-176.59823208 43.28250952 -173.89480933 42.15032822 -171.19122314 41.01852417 C-158.18139564 35.57063631 -145.18329322 30.09516585 -132.19024658 24.60739136 C-131.26836548 24.21809448 -130.34648437 23.82879761 -129.39666748 23.42770386 C-119.7376786 19.34849796 -110.08067361 15.26466542 -100.42791748 11.17073059 C-96.38376455 9.45592178 -92.33877671 7.74308767 -88.29370117 6.03045654 C-86.38837306 5.22311987 -84.48344785 4.41483146 -82.57897949 3.60546875 C-73.26636183 -0.3521169 -63.93988649 -4.25705154 -54.51446533 -7.93948364 C-53.39694633 -8.37735199 -53.39694633 -8.37735199 -52.2568512 -8.82406616 C-33.49440526 -16.075488 -17.31759372 -7.4928766 0 0 Z " fill="#003267" transform="translate(547.5652465820313,199.95510864257813)"/>
<path d="M0 0 C0.40488739 14.66532274 0.73647955 29.3314448 1 44 C1.02830902 45.55258514 1.02830902 45.55258514 1.05718994 47.13653564 C1.16400256 53.21005604 1.24286908 59.28302479 1.28710938 65.35733032 C1.30381927 67.26103283 1.32755546 69.16468878 1.35888672 71.06820679 C1.74179118 95.32375258 -4.12050018 114.51523239 -21.3046875 132.3984375 C-31.03675454 141.74760354 -42.64815115 146.99626933 -55 152 C-55.01458252 153.25135742 -55.02916504 154.50271484 -55.04418945 155.79199219 C-55.10217927 160.43648803 -55.1794123 165.08049939 -55.26245117 169.72460938 C-55.29569726 171.73429499 -55.32373019 173.74407391 -55.34643555 175.75390625 C-55.37998722 178.64363347 -55.43230337 181.53250593 -55.48828125 184.421875 C-55.49467117 185.31992859 -55.5010611 186.21798218 -55.50764465 187.14324951 C-55.68887291 194.83920347 -55.68887291 194.83920347 -59 198 C-63.17284401 197.49551109 -64.98879713 196.45432229 -67.8125 193.375 C-70.40535 190.64160299 -73.00201536 188.06268394 -75.875 185.625 C-79.06682509 182.88378551 -82.04302977 179.99314112 -85 177 C-88.5482054 173.41387485 -92.15842557 169.99499881 -96 166.7265625 C-97.44323273 165.48064675 -98.85663299 164.19988099 -100.25 162.8984375 C-101.013125 162.18945312 -101.77625 161.48046875 -102.5625 160.75 C-103.58537109 159.78320312 -103.58537109 159.78320312 -104.62890625 158.796875 C-110.16301188 154.60298935 -115.25456889 153.55768285 -122.08398438 153.63110352 C-122.86070496 153.62733704 -123.63742554 153.62357056 -124.43768311 153.61968994 C-126.11434222 153.61328582 -127.79103769 153.61356073 -129.46769714 153.61987495 C-132.13581212 153.62905091 -134.80323389 153.6186845 -137.47131348 153.60325623 C-145.05378207 153.56335768 -152.6361938 153.56193779 -160.21875 153.56420898 C-164.86948662 153.56426057 -169.51985201 153.54485103 -174.17048645 153.51487541 C-176.77321962 153.50419566 -179.37519792 153.51609714 -181.97790527 153.52870178 C-195.26227644 153.49906451 -207.48311305 151.52814208 -219.375 145.1875 C-220.04144531 144.84203125 -220.70789063 144.4965625 -221.39453125 144.140625 C-226.73772551 141.29717074 -231.50431557 138.06968208 -236 134 C-236.66 133.43152344 -237.32 132.86304688 -238 132.27734375 C-249.87996584 121.3487033 -258.39226777 105.16858222 -259.08882332 88.92918587 C-259.12228662 86.60002926 -259.12378354 84.27297833 -259.11352539 81.94360352 C-259.11367142 81.06475998 -259.11381744 80.18591644 -259.1139679 79.28044128 C-259.11327527 76.39657053 -259.10551348 73.51276562 -259.09765625 70.62890625 C-259.09578976 68.62108902 -259.09436695 66.61327134 -259.09336853 64.60545349 C-259.08956155 59.3365451 -259.07974688 54.06766453 -259.06866455 48.79876709 C-259.05841123 43.41597876 -259.05386252 38.03318591 -259.04882812 32.65039062 C-259.03812291 22.10024823 -259.02106844 11.55012643 -259 1 C-254.55900012 -0.40997474 -251.64291947 1.03634687 -247.51953125 2.8046875 C-246.77110458 3.11498398 -246.02267792 3.42528046 -245.25157166 3.74497986 C-242.76736143 4.77783525 -240.29012047 5.82644679 -237.8125 6.875 C-236.06784083 7.60355545 -234.32271528 8.330995 -232.57714844 9.05737305 C-228.9111445 10.5847602 -225.24780746 12.11830452 -221.58642578 13.65673828 C-216.14596388 15.94141715 -210.69751046 18.20644661 -205.24609375 20.46484375 C-203.93559303 21.00783615 -203.93559303 21.00783615 -202.59861755 21.5617981 C-200.8497767 22.28626242 -199.10089091 23.01061826 -197.35195923 23.73486328 C-193.90716445 25.16157178 -190.46288992 26.58953355 -187.0186615 28.01760864 C-185.35910884 28.70565066 -183.69949284 29.39353993 -182.03981018 30.08126831 C-178.27771787 31.64025132 -174.51624425 33.20066785 -170.75683594 34.76611328 C-167.04922767 36.30973897 -163.33742972 37.8430068 -159.625 39.375 C-158.58698242 39.80917236 -157.54896484 40.24334473 -156.47949219 40.69067383 C-137.32528805 48.55814708 -120.46029763 48.63613489 -101.21136475 40.77610779 C-98.55996373 39.64946692 -95.92312326 38.49314846 -93.29342651 37.31677246 C-90.32667242 35.99003704 -87.34749662 34.69224153 -84.36891174 33.39233398 C-82.76729726 32.69328219 -81.16626095 31.99290436 -79.56578064 31.29125977 C-69.74017924 26.99098233 -59.83796204 22.87420521 -49.9375 18.75 C-46.31088382 17.23903331 -42.68449587 15.72752327 -39.05859375 14.21484375 C-38.1929631 13.85377029 -37.32733246 13.49269684 -36.43547058 13.12068176 C-31.14100263 10.90778438 -25.86293729 8.66030861 -20.59765625 6.37890625 C-19.36533951 5.84727565 -18.13300003 5.31569779 -16.90063477 4.78417969 C-14.70356098 3.83336048 -12.50977168 2.87489891 -10.32006836 1.90722656 C-9.3791333 1.50084961 -8.43819824 1.09447266 -7.46875 0.67578125 C-6.66888672 0.32427002 -5.86902344 -0.02724121 -5.04492188 -0.3894043 C-3 -1 -3 -1 0 0 Z " fill="#003267" transform="translate(640,329)"/>
<path d="M0 0 C7.26656558 5.71437198 11.95905576 12.44635088 15.46875 20.94140625 C15.7884375 21.65167969 16.108125 22.36195313 16.4375 23.09375 C21.16586063 35.54947777 19.78391087 51.98643382 14.46875 63.94140625 C8.5565214 76.34091304 -0.8426603 84.75636793 -13.53125 89.94140625 C-28.98483131 94.46951506 -45.05102682 94.5054408 -59.71484375 87.3984375 C-71.77599295 80.08814319 -79.80775707 70.406799 -83.90625 56.87890625 C-87.68979216 41.1247454 -86.09288634 26.87818108 -78.21875 12.56640625 C-71.18718679 1.24439769 -61.35715453 -5.74780751 -48.48046875 -9.359375 C-31.09672049 -12.93501561 -14.65552959 -9.97869147 0 0 Z " fill="#013166" transform="translate(792.53125,604.05859375)"/>
<path d="M0 0 C9.24 0 18.48 0 28 0 C32.5 10.125 32.5 10.125 33.69586182 13.7268219 C33.9706134 14.54695267 34.24536499 15.36708344 34.52844238 16.21206665 C34.95570618 17.51003677 34.95570618 17.51003677 35.39160156 18.83422852 C35.70429993 19.77188553 36.01699829 20.70954254 36.33917236 21.6756134 C37.36060173 24.74197351 38.37565868 27.81040148 39.390625 30.87890625 C40.10196171 33.01851795 40.81369878 35.15799659 41.52581787 37.29734802 C43.39075261 42.90355664 45.2502727 48.51154647 47.10864258 54.11993408 C49.00924375 59.85253344 50.91499947 65.58341848 52.8203125 71.31445312 C56.55190061 82.54130389 60.27776647 93.77004458 64 105 C64.66 105 65.32 105 66 105 C73.61392459 83.43818022 81.13954501 61.86365192 88.1081543 40.08355713 C92.42736668 26.59528012 97.10635484 13.2944027 102 0 C110.91 0 119.82 0 129 0 C130 2 130 2 128.88623047 5.63696289 C128.3044824 7.25174068 127.71402775 8.86339559 127.1171875 10.47265625 C126.79549591 11.3581868 126.47380432 12.24371735 126.1423645 13.15608215 C125.06060178 16.12762992 123.96783211 19.09500704 122.875 22.0625 C122.11138654 24.15294117 121.34837756 26.24360323 120.5859375 28.33447266 C118.06891631 35.22726823 115.53528753 42.11390616 113 49 C112.09144969 51.46955583 111.18292129 53.93911973 110.27441406 56.40869141 C106.65434842 66.2458994 103.03331158 76.08273847 99.39794922 85.91430664 C98.55684651 88.19022272 97.71586159 90.46618233 96.875 92.7421875 C96.46959991 93.83915451 96.06419983 94.93612152 95.64651489 96.06632996 C92.32658391 105.06956013 89.07458013 114.09658978 85.86669922 123.14035034 C85.34487061 124.60252487 85.34487061 124.60252487 84.8125 126.09423828 C84.50957031 126.94801056 84.20664062 127.80178284 83.89453125 128.681427 C81.56592573 134.71703713 81.56592573 134.71703713 79 136 C74.56889335 136.32542291 70.12906855 136.32455369 65.6875 136.375 C63.8322168 136.43107422 63.8322168 136.43107422 61.93945312 136.48828125 C60.74642578 136.49988281 59.55339844 136.51148438 58.32421875 136.5234375 C57.23197998 136.54325684 56.13974121 136.56307617 55.0144043 136.58349609 C50.78986187 135.76575442 49.59662459 134.43688184 47 131 C45.300687 127.49467721 43.99888861 123.88034183 42.69921875 120.2109375 C42.3057576 119.13600037 41.91229645 118.06106323 41.50691223 116.95355225 C40.2209761 113.43187895 38.95439767 109.90356176 37.6875 106.375 C36.79574557 103.92377939 35.90250166 101.47310018 35.0078125 99.02294922 C33.19525942 94.05577779 31.38896376 89.08640245 29.58740234 84.11523438 C26.27203533 74.98029284 22.88551827 65.87230933 19.48620605 56.76834106 C18.50703745 54.14386258 17.5308896 51.51827995 16.55566406 48.89233398 C13.50511879 40.6828056 10.43019105 32.48357235 7.30859375 24.30078125 C6.45477847 22.05486228 5.60138547 19.80878322 4.74804688 17.56268311 C3.95885021 15.49347839 3.16131314 13.42762618 2.36328125 11.36181641 C1.90179687 10.14800293 1.4403125 8.93418945 0.96484375 7.68359375 C0.5587085 6.62712646 0.15257324 5.57065918 -0.26586914 4.48217773 C-1 2 -1 2 0 0 Z " fill="#013166" transform="translate(585,559)"/>
<path d="M0 0 C1.57599976 0.00966797 1.57599976 0.00966797 3.18383789 0.01953125 C14.74612027 0.29143764 23.73326435 3.00725561 32.25 11.2421875 C37.79831984 17.92328931 40.25308899 25.05558475 40.23852539 33.63354492 C40.23867142 34.35574722 40.23881744 35.07794952 40.2389679 35.82203674 C40.23827145 38.20821134 40.2304916 40.59430779 40.22265625 42.98046875 C40.22079112 44.6352789 40.21936766 46.29008961 40.21836853 47.94490051 C40.21455085 52.29981003 40.20472695 56.65468618 40.19366455 61.00958252 C40.18343433 65.45364938 40.17886745 69.89772163 40.17382812 74.34179688 C40.16310402 83.06121323 40.14603657 91.78060246 40.125 100.5 C36.33347666 100.5867982 32.54220704 100.64032207 28.75 100.6875 C27.66976562 100.71263672 26.58953125 100.73777344 25.4765625 100.76367188 C24.4453125 100.77333984 23.4140625 100.78300781 22.3515625 100.79296875 C21.39846191 100.8086792 20.44536133 100.82438965 19.46337891 100.84057617 C18.69171387 100.72818604 17.92004883 100.6157959 17.125 100.5 C14.9730563 97.27208445 14.92413557 96.21599191 15.125 92.5 C14.44695312 92.97050781 13.76890625 93.44101562 13.0703125 93.92578125 C3.26397682 100.48597534 -4.23627684 102.7331165 -15.9375 102.9375 C-16.77659912 102.95997803 -17.61569824 102.98245605 -18.48022461 103.00561523 C-27.58101732 102.97084876 -34.52716738 99.56684197 -41.1484375 93.43359375 C-47.28879666 86.55694718 -48.24824928 78.79991039 -48.1484375 69.88671875 C-47.52803873 62.20263684 -44.32043279 55.90245451 -39.0546875 50.3203125 C-25.09114723 38.65900467 -8.26482358 39.81734213 8.7734375 41.28125 C9.54945313 41.3534375 10.32546875 41.425625 11.125 41.5 C11.23364945 39.43867858 11.31088321 37.37568679 11.375 35.3125 C11.42140625 34.16394531 11.4678125 33.01539063 11.515625 31.83203125 C11.04735312 27.83767215 9.95536245 26.29992845 7.125 23.5 C-0.9566755 20.10569629 -8.48844349 20.73968143 -16.5625 23.6875 C-21.56843053 25.75851145 -25.68166299 28.08681871 -29.875 31.5 C-33.40891969 30.01828928 -35.47430326 28.04451438 -38 25.1875 C-38.68320312 24.42824219 -39.36640625 23.66898438 -40.0703125 22.88671875 C-41.88391715 20.48820697 -42.90277353 18.33148432 -43.875 15.5 C-31.4452319 4.9102882 -16.17816044 -0.10416522 0 0 Z " fill="#013065" transform="translate(357.875,593.5)"/>
<path d="M0 0 C0.96381592 0.00757324 1.92763184 0.01514648 2.9206543 0.02294922 C16.42651066 0.33494691 27.00740532 4.83796079 36.375 14.625 C44.58230583 24.3527828 47.24640588 35.40800723 47.375 47.8125 C47.3891394 48.86667114 47.3891394 48.86667114 47.40356445 49.94213867 C47.37977605 53.65357915 47.2357824 55.2713264 45.125 58.4375 C42.26498413 58.83622742 42.26498413 58.83622742 38.56396484 58.86987305 C37.89067642 58.8800647 37.217388 58.89025635 36.5236969 58.90075684 C34.2943603 58.93099335 32.06545257 58.94016849 29.8359375 58.94921875 C28.29178426 58.96605764 26.7476448 58.98420681 25.20352173 59.00361633 C21.13635563 59.05120873 17.06924535 59.08095798 13.00189209 59.10705566 C8.85271169 59.13681486 4.70372386 59.18336098 0.5546875 59.22851562 C-7.58844728 59.31465371 -15.7315994 59.38195189 -23.875 59.4375 C-23.43496263 61.02564175 -22.98511635 62.61106743 -22.53125 64.1953125 C-22.28181641 65.07848145 -22.03238281 65.96165039 -21.77539062 66.87158203 C-19.97842713 71.99253819 -17.19573648 75.19015041 -12.42578125 77.75390625 C-2.45433608 81.83636668 7.20951158 81.55303547 17.125 77.4375 C20.16525776 75.79462779 22.67285399 73.88964601 25.125 71.4375 C28.79574076 71.43107138 30.68036492 72.72528493 33.23828125 75.16015625 C34.3150846 76.26338423 35.38128281 77.37704734 36.4375 78.5 C36.98728516 79.06783203 37.53707031 79.63566406 38.10351562 80.22070312 C39.45327365 81.61740925 40.79041525 83.02628837 42.125 84.4375 C38.76339554 92.08055095 31.54739825 96.2635342 24.1015625 99.37109375 C8.27351204 105.04177325 -7.550562 105.26715356 -23 98.3125 C-35.59402745 91.54043066 -43.99857982 80.71332049 -48.1484375 67.19921875 C-52.17702421 51.88625745 -50.22497081 36.94070757 -42.625 23.0625 C-35.63186859 11.8972456 -26.27686881 4.67559913 -13.60009766 1.04174805 C-9.06329878 0.03578341 -4.63196405 -0.05121786 0 0 Z " fill="#023267" transform="translate(252.875,593.5625)"/>
<path d="M0 0 C0.83523193 0.00974854 1.67046387 0.01949707 2.53100586 0.02954102 C13.34187146 0.33902237 20.7162147 3.33502104 28.5234375 10.96875 C38.69824796 22.576115 38.00082184 38.84590418 37.8828125 53.46484375 C37.87906735 54.83345835 37.87622752 56.20207569 37.87423706 57.57069397 C37.86671851 61.11664664 37.84717649 64.66242693 37.8248291 68.20831299 C37.80411171 71.84913808 37.79518088 75.48999192 37.78515625 79.13085938 C37.76391521 86.23314206 37.72992813 93.33530958 37.6875 100.4375 C33.20834672 100.46636338 28.72921709 100.48425187 24.25 100.5 C22.97060547 100.50837891 21.69121094 100.51675781 20.37304688 100.52539062 C19.15810547 100.52861328 17.94316406 100.53183594 16.69140625 100.53515625 C15.56549072 100.54039307 14.4395752 100.54562988 13.27954102 100.55102539 C10.6875 100.4375 10.6875 100.4375 9.6875 99.4375 C9.58488435 97.51639909 9.55177953 95.59155443 9.5456543 93.66772461 C9.53510262 91.81460915 9.53510262 91.81460915 9.52433777 89.92405701 C9.52252188 89.25907133 9.52070599 88.59408566 9.51883507 87.9089489 C9.51167548 85.8272631 9.49600937 83.74581387 9.47749329 81.66419983 C9.42502638 75.74369727 9.3771267 69.82331747 9.36157227 63.90258789 C9.35143943 60.28313476 9.32197323 56.66426685 9.28025246 53.04504585 C9.26800242 51.67011525 9.26281018 50.29510168 9.26505089 48.92011833 C9.27472287 41.04127457 9.09183609 35.11170464 4.6875 28.4375 C-1.21382478 23.8639733 -8.10131788 23.73932192 -15.3125 24.4375 C-19.91195456 25.70368484 -22.44400364 27.31976514 -25.3840332 31.10351562 C-28.64234938 36.98008389 -27.91800533 43.80919984 -27.921875 50.33984375 C-27.9368723 51.78717383 -27.95360269 53.2344869 -27.97198486 54.68177795 C-28.01549761 58.47108793 -28.03562135 62.26016712 -28.05072021 66.04968262 C-28.07034977 69.92453569 -28.11231296 73.79914162 -28.15234375 77.67382812 C-28.22747132 85.26165205 -28.27786783 92.84937166 -28.3125 100.4375 C-36.36786398 104.46518199 -46.30632928 101.4375 -55.3125 101.4375 C-55.3125 68.7675 -55.3125 36.0975 -55.3125 2.4375 C-47.7225 2.4375 -40.1325 2.4375 -32.3125 2.4375 C-29.43447758 7.23420403 -28.95199034 8.27019491 -29.3125 13.4375 C-28.6525 13.4375 -27.9925 13.4375 -27.3125 13.4375 C-26.92964844 12.54224609 -26.92964844 12.54224609 -26.5390625 11.62890625 C-25.17981893 9.20044878 -23.90672117 8.03278474 -21.6875 6.375 C-21.05585937 5.88902344 -20.42421875 5.40304687 -19.7734375 4.90234375 C-13.34345033 1.07497043 -7.43184054 -0.09704499 0 0 Z " fill="#023266" transform="translate(549.3125,593.5625)"/>
<path d="M0 0 C1.21880859 -0.01224609 2.43761719 -0.02449219 3.69335938 -0.03710938 C5.43649414 -0.04000977 5.43649414 -0.04000977 7.21484375 -0.04296875 C8.28726318 -0.04707764 9.35968262 -0.05118652 10.46459961 -0.05541992 C13.0625 0.1875 13.0625 0.1875 15.0625 2.1875 C15.30859566 4.16712379 15.30859566 4.16712379 15.30300903 6.64199829 C15.30575836 7.57871872 15.30850769 8.51543915 15.31134033 9.48054504 C15.30414978 10.51128647 15.29695923 11.54202789 15.28955078 12.60400391 C15.28984283 13.68694229 15.29013489 14.76988068 15.29043579 15.88563538 C15.28903828 19.47852488 15.27345718 23.07120906 15.2578125 26.6640625 C15.25408387 29.14985033 15.25123619 31.63563962 15.24923706 34.12142944 C15.24237126 40.00399086 15.22659547 45.88647602 15.20653808 51.76900613 C15.17809277 60.2962911 15.16759139 68.82360117 15.15492249 77.35092163 C15.13550639 89.29650916 15.09719196 101.24190304 15.0625 113.1875 C33.5425 113.1875 52.0225 113.1875 71.0625 113.1875 C71.0625 120.7775 71.0625 128.3675 71.0625 136.1875 C69.0813761 138.1686239 65.16400034 137.34464596 62.45336914 137.34863281 C61.65664291 137.35359772 60.85991669 137.35856262 60.03904724 137.36367798 C57.39190827 137.37833573 54.7448292 137.3851072 52.09765625 137.390625 C50.26541643 137.39637301 48.43317665 137.40213078 46.60093689 137.40789795 C42.75486977 137.41841791 38.90882363 137.42425421 35.06274414 137.42773438 C30.12483153 137.43322445 25.18719394 137.45725916 20.24936771 137.48570633 C16.46365031 137.50429201 12.67799971 137.5095361 8.89224052 137.51107025 C7.07129854 137.514106 5.25035799 137.52216536 3.42946053 137.53525543 C0.88643336 137.55223312 -1.65591442 137.5504564 -4.19897461 137.54394531 C-4.95697357 137.5531601 -5.71497253 137.56237488 -6.49594116 137.5718689 C-8.59068298 137.55499268 -8.59068298 137.55499268 -11.9375 137.1875 C-14.18247908 133.82003137 -14.18693407 132.72135444 -14.18473816 128.78427124 C-14.18893265 127.66250992 -14.19312714 126.5407486 -14.19744873 125.38499451 C-14.19182922 124.15370316 -14.18620972 122.9224118 -14.18041992 121.65380859 C-14.18231827 120.35775192 -14.18421661 119.06169525 -14.18617249 117.72636414 C-14.19102228 114.17075606 -14.18336421 110.61527337 -14.17321944 107.05968046 C-14.16444416 103.34322467 -14.16619626 99.62677287 -14.1665802 95.91030884 C-14.16564352 89.67097878 -14.15695782 83.43169734 -14.14331055 77.19238281 C-14.12757123 69.96973427 -14.12231291 62.74713895 -14.1230461 55.5244745 C-14.12365551 48.58489832 -14.11855895 41.64533954 -14.11025429 34.70576859 C-14.10671582 31.74804168 -14.10489024 28.79032093 -14.10436058 25.83259201 C-14.10317359 21.70916966 -14.09347808 17.58581093 -14.08276367 13.46240234 C-14.08321686 12.22706253 -14.08367004 10.99172272 -14.08413696 9.71894836 C-14.07987198 8.60282669 -14.07560699 7.48670502 -14.07121277 6.33676147 C-14.06953692 5.36079199 -14.06786108 4.3848225 -14.06613445 3.37927818 C-13.7300396 -2.34737868 -4.30688716 0.00227037 0 0 Z " fill="#003166" transform="translate(124.9375,557.8125)"/>
<path d="M0 0 C4.01939063 -0.22363929 8.03634772 -0.38628486 12.06054688 -0.49438477 C13.42674856 -0.53946167 14.7925203 -0.6007517 16.15722656 -0.67895508 C27.47776019 -1.31108707 27.47776019 -1.31108707 31.14550781 1.84790039 C32.69788768 4.1679965 33.87202212 6.4501721 35 9 C35.6290625 9.99128906 36.258125 10.98257813 36.90625 12.00390625 C37.96991893 13.71151201 39.03241686 15.41984774 40.09375 17.12890625 C42.5776559 20.87003501 45.27668885 24.43096434 48 28 C48.29656494 27.5373877 48.59312988 27.07477539 48.89868164 26.59814453 C64.12695109 2.87304891 64.12695109 2.87304891 67 0 C69.07262076 -0.08767112 71.14820294 -0.10695873 73.22265625 -0.09765625 C74.48271484 -0.09443359 75.74277344 -0.09121094 77.04101562 -0.08789062 C78.38151109 -0.07953403 79.72200588 -0.07106907 81.0625 -0.0625 C82.40689942 -0.0574866 83.7513006 -0.05292342 85.09570312 -0.04882812 C88.39717941 -0.03699488 91.69856803 -0.02050971 95 0 C93.2932161 4.51405124 90.94965361 8.25457103 88.1875 12.1875 C87.70974121 12.87513428 87.23198242 13.56276855 86.73974609 14.27124023 C81.89071348 21.22016772 76.92652031 28.08688372 71.9453125 34.94140625 C71.45450195 35.62348145 70.96369141 36.30555664 70.45800781 37.00830078 C69.48574292 38.33645499 68.48997397 39.64771676 67.47167969 40.94091797 C64.77093101 44.09493513 64.77093101 44.09493513 64.23217773 47.98852539 C65.02451144 50.06421295 65.92908161 51.60910856 67.23046875 53.40625 C67.69694824 54.05779053 68.16342773 54.70933105 68.64404297 55.38061523 C69.4080542 56.42971069 69.4080542 56.42971069 70.1875 57.5 C71.27777745 59.02182479 72.36760196 60.54397417 73.45703125 62.06640625 C74.03275879 62.8670752 74.60848633 63.66774414 75.20166016 64.49267578 C78.28407599 68.79031502 81.33209 73.11183865 84.375 77.4375 C85.23001099 78.64212891 85.23001099 78.64212891 86.10229492 79.87109375 C97 95.35873071 97 95.35873071 97 98 C92.99911307 98.24888281 89.00126335 98.42936435 84.99438477 98.54931641 C83.63486228 98.59934038 82.27587087 98.66739674 80.91821289 98.75439453 C69.72622577 99.45312307 69.72622577 99.45312307 65.74389648 96.10083008 C63.89981698 93.49033315 62.45020392 90.84663379 61 88 C59.8654517 86.21641927 58.7130735 84.44405248 57.54296875 82.68359375 C55.84114246 80.029061 54.14524821 77.37095462 52.45507812 74.70898438 C51.90658203 73.85498047 51.35808594 73.00097656 50.79296875 72.12109375 C50.3033667 71.3520874 49.81376465 70.58308105 49.30932617 69.79077148 C48.11073489 67.86450604 48.11073489 67.86450604 46 67 C45.74476563 67.71027344 45.48953125 68.42054688 45.2265625 69.15234375 C43.89623914 72.24089702 42.27112981 74.78629401 40.375 77.5625 C39.66859375 78.60277344 38.9621875 79.64304687 38.234375 80.71484375 C37.49703125 81.79894531 36.7596875 82.88304687 36 84 C35.25324561 85.12500173 34.50844142 86.25130048 33.765625 87.37890625 C32.70601562 88.98572266 32.70601562 88.98572266 31.625 90.625 C30.65433594 92.09839844 30.65433594 92.09839844 29.6640625 93.6015625 C28 96 28 96 26 98 C23.20263672 98.22705078 23.20263672 98.22705078 19.6796875 98.1953125 C17.79443359 98.18564453 17.79443359 98.18564453 15.87109375 98.17578125 C14.55238281 98.15902344 13.23367188 98.14226562 11.875 98.125 C10.53516279 98.11496983 9.19531848 98.10584404 7.85546875 98.09765625 C4.57013427 98.07402075 1.28515535 98.04107234 -2 98 C0.61080955 92.53719756 3.45649413 87.57139088 6.9375 82.625 C7.40623535 81.95090088 7.8749707 81.27680176 8.35791016 80.58227539 C13.17606648 73.68351568 18.10795543 66.86548302 23.0546875 60.05859375 C23.78896973 59.03354736 23.78896973 59.03354736 24.53808594 57.98779297 C25.51186862 56.66372172 26.52100427 55.36493452 27.56347656 54.09423828 C29.20727392 52.11464382 29.20727392 52.11464382 31 49 C30.29286787 44.68451142 27.25144637 41.29178128 24.6875 37.8125 C24.25598633 37.21735596 23.82447266 36.62221191 23.37988281 36.0090332 C22.43499456 34.70656109 21.48778673 33.40576938 20.53857422 32.10644531 C18.33251396 29.08615209 16.13747643 26.05793681 13.94458008 23.02807617 C12.84627279 21.51107978 11.74597187 19.99552398 10.64331055 18.48168945 C7.9232175 14.73228028 5.23865576 10.95822131 2.609375 7.14453125 C2.10889648 6.42241455 1.60841797 5.70029785 1.09277344 4.95629883 C0 3 0 3 0 0 Z " fill="#013065" transform="translate(814,596)"/>
<path d="M0 0 C0.99 0.66 1.98 1.32 3 2 C3.37231445 4.21484375 3.37231445 4.21484375 3.36328125 6.9375 C3.36263672 7.91460938 3.36199219 8.89171875 3.36132812 9.8984375 C3.34521484 10.92195312 3.32910156 11.94546875 3.3125 13 C3.31572266 14.02351562 3.31894531 15.04703125 3.32226562 16.1015625 C3.26689161 23.73310839 3.26689161 23.73310839 1 26 C-0.93603516 26.14770508 -0.93603516 26.14770508 -3.2890625 26.01953125 C-4.14886719 25.99052734 -5.00867188 25.96152344 -5.89453125 25.93164062 C-7.69200614 25.85321003 -9.48898999 25.76238604 -11.28515625 25.65820312 C-17.82382043 25.46874703 -22.16752326 26.45775973 -27 31 C-32.35261297 38.5164194 -32.7355168 45.90873287 -32.70703125 54.8828125 C-32.72215256 56.17822968 -32.73727386 57.47364685 -32.75285339 58.80831909 C-32.79238147 62.217925 -32.80287264 65.62699629 -32.80688477 69.0368042 C-32.81627784 72.52990359 -32.85346257 76.02270617 -32.88867188 79.515625 C-32.95549905 86.34414693 -32.97662634 93.17064059 -33 100 C-41.91 100 -50.82 100 -60 100 C-60.02254916 87.37004197 -60.040914 74.7400972 -60.05181217 62.11012363 C-60.05704146 56.24617836 -60.06413994 50.38224751 -60.07543945 44.51831055 C-60.0862667 38.86438288 -60.09227649 33.21046913 -60.09487724 27.55653191 C-60.09673179 25.3942639 -60.10035295 23.23199669 -60.10573006 21.06973457 C-60.11293833 18.05241343 -60.11399103 15.03515057 -60.11352539 12.01782227 C-60.11712067 11.1143959 -60.12071594 10.21096954 -60.12442017 9.28016663 C-60.11405216 3.11405216 -60.11405216 3.11405216 -59 2 C-55.40595242 1.63750021 -51.7973582 1.62846464 -48.1875 1.5625 C-46.6705957 1.49385742 -46.6705957 1.49385742 -45.12304688 1.42382812 C-42.29455072 1.3808305 -39.76931434 1.41695646 -37 2 C-34.23374616 4.97935783 -33.27008953 7.18973142 -32 11 C-31.39865234 10.31164062 -31.39865234 10.31164062 -30.78515625 9.609375 C-21.87530338 -0.00760905 -12.60222261 -1.21774286 0 0 Z " fill="#013065" transform="translate(478,594)"/>
<path d="M0 0 C6.35779101 3.6639867 10.78575437 9.48541897 13.08984375 16.48046875 C14.94056495 26.3458834 14.59164828 37.13982407 9.5625 46 C5.69516022 51.1979344 1.69634753 53.81752106 -4.4375 56 C-7.18994253 56.30582695 -9.63673051 56.47947084 -12.375 56.4375 C-13.43158813 56.42396484 -13.43158813 56.42396484 -14.50952148 56.41015625 C-22.54841794 56.14197576 -26.79547969 53.97499239 -32.25 48.25 C-39.18163393 39.57754476 -39.23201469 30.73139021 -38.4375 20 C-37.07743694 12.47220912 -33.50023461 6.41108895 -27.5 1.6875 C-18.96625717 -3.01476646 -9.02318802 -4.05429174 0 0 Z " fill="#FCFDFD" transform="translate(771.4375,618)"/>
<path d="M0 0 C4.99583784 4.06637964 8.36371276 9.01517085 9.38671875 15.421875 C9.69300822 22.22361358 8.14111772 28.38242061 3.609375 33.6015625 C-1.49688694 38.19719825 -7.01165808 39.4925311 -13.6953125 39.3125 C-19.02885694 38.58930753 -23.29505296 36.10271893 -26.875 32.125 C-31.21058699 25.74913678 -31.85972774 19.56560409 -31 12 C-28.9604601 5.13972944 -24.83282742 1.17538854 -18.6875 -2.3125 C-11.92656648 -4.04204113 -6.14501216 -3.42702601 0 0 Z " fill="#042C63" transform="translate(791,750)"/>
<path d="M0 0 C2.64 0 5.28 0 8 0 C11.96 6.93 15.92 13.86 20 21 C23.49997503 16.63075925 23.49997503 16.63075925 26.359375 12.01171875 C26.75253906 11.30595703 27.14570312 10.60019531 27.55078125 9.87304688 C27.94652344 9.15181641 28.34226562 8.43058594 28.75 7.6875 C29.16121094 6.94693359 29.57242188 6.20636719 29.99609375 5.44335938 C31.00154785 3.63120373 32.001353 1.8159158 33 0 C35.64 0 38.28 0 41 0 C41 13.2 41 26.4 41 40 C38.36 40 35.72 40 33 40 C32.67 32.74 32.34 25.48 32 18 C29.24247393 22.92506443 29.24247393 22.92506443 26.52661133 27.87304688 C23.70980417 32.73382344 23.70980417 32.73382344 20.5 33.9375 C16.46366181 32.42387318 15.17296483 29.16408167 13.1875 25.5 C11.805625 23.025 10.42375 20.55 9 18 C8.67 25.26 8.34 32.52 8 40 C5.36 40 2.72 40 0 40 C0 26.8 0 13.6 0 0 Z " fill="#042E63" transform="translate(857,748)"/>
<path d="M0 0 C3.83625 -0.103125 7.6725 -0.20625 11.625 -0.3125 C13.42251709 -0.38078003 13.42251709 -0.38078003 15.25634766 -0.45043945 C24.07606378 -0.56522165 24.07606378 -0.56522165 27.7109375 2.33203125 C30.96113459 6.12023025 31.29107496 9.07163392 31.21875 14.0078125 C30.68256416 18.89093356 27.32947588 21.72555678 24 25 C24.6496875 25.99902344 25.299375 26.99804688 25.96875 28.02734375 C26.81261881 29.33065225 27.65636236 30.63404185 28.5 31.9375 C28.92925781 32.59685547 29.35851562 33.25621094 29.80078125 33.93554688 C33 38.88671875 33 38.88671875 33 40 C29.39699031 40.86383634 26.56627257 41.10625169 23 40 C19.68675727 36.17336343 15 30.2483596 15 25 C12.69 25 10.38 25 8 25 C8 29.95 8 34.9 8 40 C5.36 40 2.72 40 0 40 C0 26.8 0 13.6 0 0 Z " fill="#032C62" transform="translate(812,748)"/>
<path d="M0 0 C7 0 7 0 9.3359375 1.984375 C10.00882812 2.89703125 10.68171875 3.8096875 11.375 4.75 C12.12394531 5.74128906 12.87289063 6.73257813 13.64453125 7.75390625 C14.02689941 8.28129395 14.40926758 8.80868164 14.80322266 9.35205078 C16.41311556 11.56885557 18.0742866 13.74528104 19.7331543 15.92553711 C21.50380559 18.27242239 23.24941954 20.63810572 25 23 C25.33 15.41 25.66 7.82 26 0 C28.64 0 31.28 0 34 0 C34 13.2 34 26.4 34 40 C28 40 28 40 26.3046875 38.8125 C25.83289063 38.214375 25.36109375 37.61625 24.875 37 C24.30394531 36.2884375 23.73289062 35.576875 23.14453125 34.84375 C22.43683594 33.9053125 21.72914063 32.966875 21 32 C20.51063965 31.35675781 20.0212793 30.71351563 19.51708984 30.05078125 C15.9755919 25.39242277 12.48642443 20.70079698 9 16 C8.67 23.92 8.34 31.84 8 40 C5.36 40 2.72 40 0 40 C0 26.8 0 13.6 0 0 Z " fill="#032C62" transform="translate(444,748)"/>
<path d="M0 0 C3.80192472 2.15493709 5.61601322 4.52444201 7.625 8.375 C7.625 9.035 7.625 9.695 7.625 10.375 C4.97761084 11.8356285 3.73051666 12.375 0.625 12.375 C-0.07625 11.55 -0.7775 10.725 -1.5 9.875 C-4.98705676 6.84277673 -6.74165766 6.6916106 -11.21875 6.9453125 C-14.4394622 7.58712109 -16.18667156 8.98151577 -18.375 11.375 C-20.12014755 16.61044264 -20.01658066 21.55156022 -18.1875 26.75 C-16.06137929 29.8292093 -14.8981828 31.07295418 -11.375 32.375 C-8.23674736 32.50760222 -5.39715865 32.24430818 -2.375 31.375 C0.0599047 29.09227684 0.56671318 27.54986047 1.625 24.375 C-1.675 24.375 -4.975 24.375 -8.375 24.375 C-8.375 22.065 -8.375 19.755 -8.375 17.375 C-2.435 17.375 3.505 17.375 9.625 17.375 C9.625 25.01959686 9.09390837 30.32135017 4.25 36.3125 C-1.54457136 40.86537749 -7.24832189 41.02670213 -14.375 40.375 C-19.80179091 38.63433122 -23.23014032 35.01650977 -26.375 30.375 C-29.45501373 24.12068641 -29.50428296 16.61488274 -27.72265625 9.92578125 C-25.51387579 4.94891541 -22.12710569 1.94400377 -17.375 -0.625 C-11.62113793 -2.54295402 -5.56893183 -2.51803484 0 0 Z " fill="#052C62" transform="translate(519.375,748.625)"/>
<path d="M0 0 C5.0428125 -0.0928125 5.0428125 -0.0928125 10.1875 -0.1875 C11.76374146 -0.22846802 11.76374146 -0.22846802 13.37182617 -0.27026367 C21.98992973 -0.34711511 21.98992973 -0.34711511 26 3 C29.37551414 6.8411023 29.51944055 10.64316455 29.34375 15.5625 C28.81780954 19.29189598 27.58116456 21.28646803 25 24 C19.29321195 27.42407283 14.57929314 27.27038191 8 27 C8 31.29 8 35.58 8 40 C5.36 40 2.72 40 0 40 C0 26.8 0 13.6 0 0 Z " fill="#062E63" transform="translate(562,748)"/>
<path d="M0 0 C2.64 0 5.28 0 8 0 C8 4.95 8 9.9 8 15 C13.94 15 19.88 15 26 15 C26 10.05 26 5.1 26 0 C28.64 0 31.28 0 34 0 C34 13.53 34 27.06 34 41 C31.36 41 28.72 41 26 41 C26 35.06 26 29.12 26 23 C20.06 23 14.12 23 8 23 C8 28.94 8 34.88 8 41 C5.36 41 2.72 41 0 41 C0 27.47 0 13.94 0 0 Z " fill="#0D3668" transform="translate(373,748)"/>
<path d="M0 0 C2.05078125 0.03255208 4.1015625 0.06510417 6.15234375 0.09765625 C8.29524309 5.30938503 10.43130162 10.52384403 12.56103516 15.7409668 C13.28669315 17.51582559 14.01422326 19.28992014 14.74365234 21.06323242 C15.7910543 23.61048547 16.83171982 26.16040003 17.87109375 28.7109375 C18.19920044 29.50478348 18.52730713 30.29862946 18.86535645 31.11653137 C21.15234375 36.75604113 21.15234375 36.75604113 21.15234375 40.09765625 C18.51234375 40.09765625 15.87234375 40.09765625 13.15234375 40.09765625 C10.15234375 34.34765625 10.15234375 34.34765625 10.15234375 32.09765625 C4.54234375 32.09765625 -1.06765625 32.09765625 -6.84765625 32.09765625 C-7.50765625 34.73765625 -8.16765625 37.37765625 -8.84765625 40.09765625 C-11.81765625 40.09765625 -14.78765625 40.09765625 -17.84765625 40.09765625 C-14.53653465 30.30712415 -10.94721502 20.66533589 -7.03515625 11.09765625 C-6.43973022 9.63755127 -6.43973022 9.63755127 -5.83227539 8.14794922 C-2.52689234 0.13355668 -2.52689234 0.13355668 0 0 Z " fill="#032B61" transform="translate(295.84765625,747.90234375)"/>
<path d="M0 0 C2.64 0 5.28 0 8 0 C11.65311663 6.89836102 14.54903411 14.066794 17.42871094 21.31103516 C18.25718766 23.39306316 19.09309932 25.47200118 19.9296875 27.55078125 C20.45877637 28.87482305 20.98743809 30.19903563 21.515625 31.5234375 C21.99290039 32.71888184 22.47017578 33.91432617 22.96191406 35.14599609 C24 38 24 38 24 40 C21.36 40 18.72 40 16 40 C13 34.25 13 34.25 13 32 C4.585 32.495 4.585 32.495 -4 33 C-4.99 35.31 -5.98 37.62 -7 40 C-9.64 40 -12.28 40 -15 40 C-12.70534207 31.60336032 -9.59308522 23.57856107 -6.375 15.5 C-5.86683288 14.2136817 -5.35901811 12.92722416 -4.8515625 11.640625 C-1.17426658 2.34853316 -1.17426658 2.34853316 0 0 Z " fill="#04275E" transform="translate(652,748)"/>
<path d="M0 0 C4.73942415 3.00963432 8.00499525 7.2986104 10.2890625 12.36328125 C10.8515625 15.17578125 10.8515625 15.17578125 10.8515625 20.17578125 C-3.9984375 20.50578125 -18.8484375 20.83578125 -34.1484375 21.17578125 C-33.09010672 12.70913501 -31.50120043 7.8984354 -25.1484375 2.30078125 C-17.73515245 -2.95029566 -8.38960128 -3.64239891 0 0 Z " fill="#FBFCFD" transform="translate(263.1484375,614.82421875)"/>
<path d="M0 0 C2.05078125 0.03255208 4.1015625 0.06510417 6.15234375 0.09765625 C7.64609871 3.75959115 9.13940399 7.42170909 10.63232422 11.08398438 C11.38486312 12.92978048 12.13774004 14.77543877 12.890625 16.62109375 C13.85931095 18.99760327 14.82613942 21.37487084 15.79101562 23.75292969 C16.65429303 25.87396635 17.52455566 27.99218426 18.40429688 30.10644531 C18.9524707 31.43627441 18.9524707 31.43627441 19.51171875 32.79296875 C19.83108398 33.55883301 20.15044922 34.32469727 20.47949219 35.11376953 C21.15234375 37.09765625 21.15234375 37.09765625 21.15234375 40.09765625 C18.51234375 40.09765625 15.87234375 40.09765625 13.15234375 40.09765625 C12.16234375 37.78765625 11.17234375 35.47765625 10.15234375 33.09765625 C4.54234375 32.76765625 -1.06765625 32.43765625 -6.84765625 32.09765625 C-7.17765625 34.07765625 -7.50765625 36.05765625 -7.84765625 38.09765625 C-8.17765625 38.75765625 -8.50765625 39.41765625 -8.84765625 40.09765625 C-11.48765625 40.09765625 -14.12765625 40.09765625 -16.84765625 40.09765625 C-16.22801699 35.20374154 -14.76815922 30.87898036 -12.94140625 26.328125 C-12.65664429 25.60651688 -12.37188232 24.88490875 -12.07849121 24.14143372 C-11.47943453 22.62679247 -10.87753842 21.11327146 -10.27294922 19.60083008 C-9.34458978 17.27748199 -8.42551554 14.95062205 -7.5078125 12.62304688 C-6.92371402 11.14952663 -6.33909703 9.67621179 -5.75390625 8.203125 C-5.47784546 7.5052739 -5.20178467 6.80742279 -4.9173584 6.08842468 C-2.53114311 0.13378135 -2.53114311 0.13378135 0 0 Z " fill="#032D62" transform="translate(130.84765625,747.90234375)"/>
<path d="M0 0 C1.59811523 0.02030273 1.59811523 0.02030273 3.22851562 0.04101562 C5.84037588 0.07615276 8.45116634 0.12534816 11.0625 0.1875 C11.68407744 11.82481099 11.68407744 11.82481099 9.4375 16.75 C3.8321593 22.50284967 -1.9499131 25.2249783 -9.9375 25.5 C-14.29516662 25.39515389 -17.30180005 24.75909265 -20.9375 22.1875 C-23.83822845 18.80331681 -24.54154843 15.64763784 -24.34765625 11.1796875 C-23.59273995 7.5129512 -21.63692774 5.65718921 -18.9375 3.1875 C-12.69142655 -0.33422226 -7.05429596 -0.17077439 0 0 Z " fill="#FAFCFC" transform="translate(358.9375,650.8125)"/>
<path d="M0 0 C8.91 0 17.82 0 27 0 C27 2.31 27 4.62 27 7 C20.73 7 14.46 7 8 7 C8 9.97 8 12.94 8 16 C13.94 16 19.88 16 26 16 C26 18.31 26 20.62 26 23 C20.06 23 14.12 23 8 23 C8 26.3 8 29.6 8 33 C14.27 33 20.54 33 27 33 C27 35.31 27 37.62 27 40 C18.09 40 9.18 40 0 40 C0 26.8 0 13.6 0 0 Z " fill="#062F64" transform="translate(242,748)"/>
<path d="M0 0 C4.27336846 1.99584817 6.98031178 4.29663954 9.63671875 8.28125 C7.24162537 11.18057357 5.32426632 11.78293276 1.63671875 12.28125 C1.30671875 11.29125 0.97671875 10.30125 0.63671875 9.28125 C-3.42070715 7.9287747 -7.12551047 7.60469361 -11.36328125 8.28125 C-14.64503443 10.81093474 -16.05571902 12.35856331 -17.36328125 16.28125 C-17.73206229 21.90516086 -17.53110595 25.41637635 -14.36328125 30.28125 C-12.04572166 32.67872544 -10.79687292 33.21526866 -7.48828125 33.71875 C-3.59605526 33.17383836 -1.50311511 31.58379483 1.63671875 29.28125 C2.62671875 28.95125 3.61671875 28.62125 4.63671875 28.28125 C7.32421875 29.71875 7.32421875 29.71875 9.63671875 31.28125 C8.27903671 36.16890533 5.96637454 37.80716098 1.63671875 40.28125 C-4.35288927 42.27778601 -11.0847518 42.35837301 -16.80078125 39.65625 C-21.85167226 34.97493638 -25.85763437 30.54397083 -26.69921875 23.44921875 C-26.78566065 16.85370169 -26.47398877 11.63112733 -22.36328125 6.28125 C-15.81800849 -0.38064232 -9.35798695 -2.84606545 0 0 Z " fill="#052D63" transform="translate(350.36328125,747.71875)"/>
<path d="M0 0 C8.58 0 17.16 0 26 0 C26 2.31 26 4.62 26 7 C20.06 7 14.12 7 8 7 C8 10.3 8 13.6 8 17 C13.28 17 18.56 17 24 17 C24 19.31 24 21.62 24 24 C18.72 24 13.44 24 8 24 C8 29.28 8 34.56 8 40 C5.36 40 2.72 40 0 40 C0 26.8 0 13.6 0 0 Z " fill="#042B60" transform="translate(723,748)"/>
<path d="M0 0 C3.5544915 1.39088798 4.71251242 2.56381194 6.8125 5.75 C8.70534929 10.93042965 8.48694192 14.53917424 6.75 19.75 C4.99563458 23.00810721 4.0849639 24.13365173 1 26 C-3.0605564 26.80407057 -7.22072831 26.93064111 -10.94921875 24.98046875 C-13.59976044 22.85618473 -14.9216634 21.23500981 -16 18 C-16.40359636 13.42073361 -16.56596308 9.33001323 -14.75 5.0625 C-10.30965745 -0.17076086 -6.73628281 -0.86764287 0 0 Z " fill="#F9FBFC" transform="translate(784,755)"/>
<path d="M0 0 C10.56 0 21.12 0 32 0 C32 2.31 32 4.62 32 7 C28.04 7 24.08 7 20 7 C20 17.89 20 28.78 20 40 C17.36 40 14.72 40 12 40 C12 29.11 12 18.22 12 7 C8.04 7 4.08 7 0 7 C0 4.69 0 2.38 0 0 Z " fill="#00285E" transform="translate(679,748)"/>
<path d="M0 0 C10.56 0 21.12 0 32 0 C32 2.31 32 4.62 32 7 C28.04 7 24.08 7 20 7 C20 17.89 20 28.78 20 40 C17.36 40 14.72 40 12 40 C12 29.11 12 18.22 12 7 C8.04 7 4.08 7 0 7 C0 4.69 0 2.38 0 0 Z " fill="#00255D" transform="translate(199,748)"/>
<path d="M0 0 C2.64 0 5.28 0 8 0 C8 10.89 8 21.78 8 33 C14.27 33 20.54 33 27 33 C27 35.31 27 37.62 27 40 C18.09 40 9.18 40 0 40 C0 26.8 0 13.6 0 0 Z " fill="#02275D" transform="translate(602,748)"/>
<path d="M0 0 C2.64 0 5.28 0 8 0 C11.56022344 6.7248665 14.81272719 13.69910309 17 21 C16.67 21.99 16.34 22.98 16 24 C15.34 23.34 14.68 22.68 14 22 C12.68252676 21.30251417 11.35085807 20.63040043 10 20 C10.33 21.65 10.66 23.3 11 25 C7.04 25 3.08 25 -1 25 C-0.51421457 21.87709365 -0.0013988 19.00419641 1 16 C0.01 18.475 0.01 18.475 -1 21 C-1.99 20.34 -2.98 19.68 -4 19 C-4.99 21.475 -4.99 21.475 -6 24 C-8.58050389 16.25848832 -3.11106898 7.01771667 0 0 Z " fill="#042D62" transform="translate(652,748)"/>
<path d="M0 0 C2.6465335 2.6465335 3.59941997 5.56221264 5 9 C6.32 7.68 7.64 6.36 9 5 C12.26755635 7.1783709 12.65734842 7.95868264 14.04296875 11.46484375 C14.56987305 12.78838867 14.56987305 12.78838867 15.10742188 14.13867188 C15.46384766 15.06228516 15.82027344 15.98589844 16.1875 16.9375 C16.55552734 17.85724609 16.92355469 18.77699219 17.30273438 19.72460938 C20 26.58537222 20 26.58537222 20 30 C17.36 30 14.72 30 12 30 C9 24.25 9 24.25 9 22 C7.7625 22.04125 6.525 22.0825 5.25 22.125 C1.98362038 22.13658291 -0.2146947 21.8568702 -3 20 C-3 19.34 -3 18.68 -3 18 C-3.99 17.34 -4.98 16.68 -6 16 C-1.71 16 2.58 16 7 16 C5.94021067 14.71387324 5.94021067 14.71387324 3.49609375 14.90234375 C2.48675781 14.91394531 1.47742188 14.92554688 0.4375 14.9375 C-0.57441406 14.94652344 -1.58632813 14.95554687 -2.62890625 14.96484375 C-3.41136719 14.97644531 -4.19382812 14.98804688 -5 15 C-1.92482916 4.44191344 -1.92482916 4.44191344 0 0 Z " fill="#032F65" transform="translate(297,758)"/>
<path d="M0 0 C4.29161047 -0.05783842 8.58312145 -0.0935412 12.875 -0.125 C14.09832031 -0.14175781 15.32164063 -0.15851562 16.58203125 -0.17578125 C17.74863281 -0.18222656 18.91523438 -0.18867187 20.1171875 -0.1953125 C21.19597168 -0.20578613 22.27475586 -0.21625977 23.38623047 -0.22705078 C26 0 26 0 28 2 C28.24609566 3.97962379 28.24609566 3.97962379 28.24050903 6.45449829 C28.24325836 7.39121872 28.24600769 8.32793915 28.24884033 9.29304504 C28.24164978 10.32378647 28.23445923 11.35452789 28.22705078 12.41650391 C28.22734283 13.49944229 28.22763489 14.58238068 28.22793579 15.69813538 C28.22653828 19.29102488 28.21095718 22.88370906 28.1953125 26.4765625 C28.19158387 28.96235033 28.18873619 31.44813962 28.18673706 33.93392944 C28.17987126 39.81649086 28.16409547 45.69897602 28.14403808 51.58150613 C28.11950986 58.93453258 28.10875255 66.28756813 28.09765625 73.640625 C28.07618531 86.76045437 28.04241768 99.8802225 28 113 C26.515 112.505 26.515 112.505 25 112 C25 76.03 25 40.06 25 3 C16.75 3 8.5 3 0 3 C0 2.01 0 1.02 0 0 Z " fill="#2D5883" transform="translate(112,558)"/>
<path d="M0 0 C2.31 0 4.62 0 7 0 C7 13.2 7 26.4 7 40 C4.69 40 2.38 40 0 40 C0 26.8 0 13.6 0 0 Z " fill="#00265B" transform="translate(422,748)"/>
<path d="M0 0 C2.31 0 4.62 0 7 0 C7 13.2 7 26.4 7 40 C4.69 40 2.38 40 0 40 C0 26.8 0 13.6 0 0 Z " fill="#01265B" transform="translate(164,748)"/>
<path d="M0 0 C2.05078125 0.03255208 4.1015625 0.06510417 6.15234375 0.09765625 C7.18485437 2.53078997 8.20353896 4.96822517 9.21484375 7.41015625 C9.50939453 8.10044922 9.80394531 8.79074219 10.10742188 9.50195312 C12.265625 14.7578125 12.265625 14.7578125 11.15234375 18.09765625 C10.49234375 18.75765625 9.83234375 19.41765625 9.15234375 20.09765625 C8.49234375 19.76765625 7.83234375 19.43765625 7.15234375 19.09765625 C6.82234375 19.75765625 6.49234375 20.41765625 6.15234375 21.09765625 C4.83234375 17.79765625 3.51234375 14.49765625 2.15234375 11.09765625 C0.17234375 15.71765625 -1.80765625 20.33765625 -3.84765625 25.09765625 C-4.51432292 23.09765625 -5.18098958 21.09765625 -5.84765625 19.09765625 C-6.83765625 19.42765625 -7.82765625 19.75765625 -8.84765625 20.09765625 C-8.97140625 20.81953125 -9.09515625 21.54140625 -9.22265625 22.28515625 C-9.83814935 25.05487519 -10.73209999 27.49469165 -11.84765625 30.09765625 C-13.13946363 26.22223411 -12.26683644 24.91687352 -10.79296875 21.15234375 C-10.34308594 19.99347656 -9.89320312 18.83460938 -9.4296875 17.640625 C-8.94886719 16.43019531 -8.46804687 15.21976563 -7.97265625 13.97265625 C-7.49957031 12.75449219 -7.02648437 11.53632812 -6.5390625 10.28125 C-2.5690989 0.13578747 -2.5690989 0.13578747 0 0 Z " fill="#052A60" transform="translate(130.84765625,747.90234375)"/>
<path d="M0 0 C1.65 0 3.3 0 5 0 C5 12.54 5 25.08 5 38 C3.35 38 1.7 38 0 38 C0 32.06 0 26.12 0 20 C-4.29 19.67 -8.58 19.34 -13 19 C-13 18.34 -13 17.68 -13 17 C-15.31 16.67 -17.62 16.34 -20 16 C-20 15.67 -20 15.34 -20 15 C-13.73 15 -7.46 15 -1 15 C-0.67 10.05 -0.34 5.1 0 0 Z " fill="#003165" transform="translate(400,749)"/>
<path d="M0 0 C4 0 4 0 6.046875 1.02734375 C8.77896898 3.78675867 9.9245841 6.98861068 11.25 10.5625 C11.518125 11.24763672 11.78625 11.93277344 12.0625 12.63867188 C14 17.67518335 14 17.67518335 14 20 C11.36 20 8.72 20 6 20 C4.24005726 16.83210307 3.75127114 14.75635569 3 11 C-2.61 10.67 -8.22 10.34 -14 10 C-13.34 8.68 -12.68 7.36 -12 6 C-9.1796875 5.390625 -9.1796875 5.390625 -5.875 5.25 C-4.77929688 5.19328125 -3.68359375 5.1365625 -2.5546875 5.078125 C-1.71164062 5.05234375 -0.86859375 5.0265625 0 5 C0 3.35 0 1.7 0 0 Z " fill="#023166" transform="translate(662,768)"/>
<path d="M0 0 C1.588125 -0.061875 3.17625 -0.12375 4.8125 -0.1875 C6.15248047 -0.23970703 6.15248047 -0.23970703 7.51953125 -0.29296875 C10 0 10 0 11.796875 1.29296875 C13.82466041 4.17005389 13.42309743 6.61522055 13 10 C11.5625 11.9375 11.5625 11.9375 9 13 C5.9521497 13.23081827 3.06655253 13.13528908 0 13 C0 8.71 0 4.42 0 0 Z " fill="#FAFBFC" transform="translate(570,755)"/>
<path d="M0 0 C2.12472576 -0.05386629 4.24983652 -0.09273071 6.375 -0.125 C7.55835938 -0.14820313 8.74171875 -0.17140625 9.9609375 -0.1953125 C13 0 13 0 15 2 C15.4375 4.9375 15.4375 4.9375 15 8 C11.87362554 11.12637446 8.9065061 11.16954678 4.6875 11.1875 C3.140625 11.125625 1.59375 11.06375 0 11 C0 7.37 0 3.74 0 0 Z " fill="#FAFCFC" transform="translate(820,755)"/>
<path d="M0 0 C2.64 0 5.28 0 8 0 C8 13.53 8 27.06 8 41 C5.36 41 2.72 41 0 41 C0 34.73 0 28.46 0 22 C-5.94 22 -11.88 22 -18 22 C-18 21.67 -18 21.34 -18 21 C-11.73 21 -5.46 21 1 21 C1 26.94 1 32.88 1 39 C2.65 39 4.3 39 6 39 C6 26.46 6 13.92 6 1 C4.35 1 2.7 1 1 1 C1 5.29 1 9.58 1 14 C0.67 14 0.34 14 0 14 C0 9.38 0 4.76 0 0 Z " fill="#152C60" transform="translate(399,748)"/>
<path d="M0 0 C0.33 0 0.66 0 1 0 C1.33 1.65 1.66 3.3 2 5 C2.66 3.68 3.32 2.36 4 1 C4.33 11.23 4.66 21.46 5 32 C3.35 32 1.7 32 0 32 C0 21.44 0 10.88 0 0 Z " fill="#003569" transform="translate(213,755)"/>
<path d="M0 0 C1.65 0 3.3 0 5 0 C3.68 0.33 2.36 0.66 1 1 C1 12.88 1 24.76 1 37 C4.96 37 8.92 37 13 37 C13.33 36.01 13.66 35.02 14 34 C17.87862084 32.60955102 20.86462003 32 25 32 C25 34.31 25 36.62 25 39 C24.34 38.67 23.68 38.34 23 38 C21.2595583 37.91550372 19.51590278 37.89276976 17.7734375 37.90234375 C16.84450684 37.90484131 15.91557617 37.90733887 14.95849609 37.90991211 C13.77594238 37.91901611 12.59338867 37.92812012 11.375 37.9375 C7.62125 37.958125 3.8675 37.97875 0 38 C0 25.46 0 12.92 0 0 Z " fill="#04386C" transform="translate(604,749)"/>
<path d="M0 0 C1.80030122 2.70045182 2.93377066 5.06677881 4.125 8.0625 C4.47820313 8.94035156 4.83140625 9.81820312 5.1953125 10.72265625 C6 13 6 13 6 15 C2.37 15 -1.26 15 -5 15 C-4.43174347 9.45949887 -2.37113483 4.96284034 0 0 Z " fill="#E8F0F4" transform="translate(656,758)"/>
<path d="M0 0 C2.38125464 2.38125464 3.00186241 4.33857567 4.125 7.5 C4.65480469 8.96953125 4.65480469 8.96953125 5.1953125 10.46875 C6 13 6 13 6 15 C2.37 15 -1.26 15 -5 15 C-1.85714286 4.28571429 -1.85714286 4.28571429 0 0 Z " fill="#ECF3F5" transform="translate(297,758)"/>
<path d="M0 0 C2 1 2 1 3.0703125 3.65234375 C3.41835937 4.73644531 3.76640625 5.82054687 4.125 6.9375 C4.47820312 8.01902344 4.83140625 9.10054687 5.1953125 10.21484375 C6 13 6 13 6 15 C2.37 15 -1.26 15 -5 15 C-3.33333333 10 -1.66666667 5 0 0 Z " fill="#E9EFF4" transform="translate(132,758)"/>
<path d="M0 0 C2 2 2 2 2.13525391 4.33837891 C2.08288574 5.29147949 2.03051758 6.24458008 1.9765625 7.2265625 C1.925 8.2578125 1.8734375 9.2890625 1.8203125 10.3515625 C1.75585938 11.43179688 1.69140625 12.51203125 1.625 13.625 C1.56828125 14.71296875 1.5115625 15.8009375 1.453125 16.921875 C1.3113698 19.61522387 1.15993358 22.3076793 1 25 C-1.55271658 21.17092513 -1.25857606 18.05416088 -1.1875 13.625 C-1.18685547 12.86960937 -1.18621094 12.11421875 -1.18554688 11.3359375 C-1.15483499 7.43211533 -0.94897317 3.81107623 0 0 Z " fill="#113065" transform="translate(708,631)"/>
<path d="M0 0 C0.66 0 1.32 0 2 0 C3.60355101 3.50776784 4.22036864 6.14354879 4 10 C3.01 10.495 3.01 10.495 2 11 C1.34 10.67 0.68 10.34 0 10 C-0.625 7.4375 -0.625 7.4375 -1 5 C-1.66 5 -2.32 5 -3 5 C-3 4.34 -3 3.68 -3 3 C-2.34 3 -1.68 3 -1 3 C-0.67 2.01 -0.34 1.02 0 0 Z " fill="#013369" transform="translate(136,754)"/>
<path d="M0 0 C2.52259061 1.97420135 2.9929808 2.96745642 3.6875 6.1875 C3.790625 7.115625 3.89375 8.04375 4 9 C3.01 9.66 2.02 10.32 1 11 C0.34 10.67 -0.32 10.34 -1 10 C-1.33 10.66 -1.66 11.32 -2 12 C-5.125 5.375 -5.125 5.375 -4 2 C-3.67 3.65 -3.34 5.3 -3 7 C-2.01 6.67 -1.02 6.34 0 6 C0 4.02 0 2.04 0 0 Z " fill="#052459" transform="translate(139,757)"/>
<path d="M0 0 C0.66 0 1.32 0 2 0 C2 1.32 2 2.64 2 4 C5.3 4 8.6 4 12 4 C11.67 4.66 11.34 5.32 11 6 C7.37 6 3.74 6 0 6 C0 4.02 0 2.04 0 0 Z " fill="#00215C" transform="translate(199,749)"/>
<path d="M0 0 C2.9375 0.8125 2.9375 0.8125 6 2 C6.33 2.99 6.66 3.98 7 5 C6.01 5.99 5.02 6.98 4 8 C3.67 6.02 3.34 4.04 3 2 C2.21625 2.515625 1.4325 3.03125 0.625 3.5625 C-0.24125 4.036875 -1.1075 4.51125 -2 5 C-2.66 4.67 -3.32 4.34 -4 4 C-2.68 2.68 -1.36 1.36 0 0 Z " fill="#0C245A" transform="translate(353,776)"/>
<path d="M0 0 C0.33 0.66 0.66 1.32 1 2 C0.34938905 3.67299959 -0.32033324 5.33859237 -1 7 C-1.37593066 8.9924325 -1.71979545 10.9918674 -2 13 C-2.66 13 -3.32 13 -4 13 C-4.66 14.32 -5.32 15.64 -6 17 C-4.89061647 10.69403048 -3.06802099 5.62470514 0 0 Z " fill="#0A2258" transform="translate(291,755)"/>
<path d="M0 0 C1.98 0 3.96 0 6 0 C6.33 1.98 6.66 3.96 7 6 C6.21625 5.525625 5.4325 5.05125 4.625 4.5625 C3.11051322 3.66101977 1.5764103 2.78820515 0 2 C0.33 3.65 0.66 5.3 1 7 C0.34 6.34 -0.32 5.68 -1 5 C-0.625 2.375 -0.625 2.375 0 0 Z " fill="#03225A" transform="translate(662,766)"/>
<path d="M0 0 C0 3.28176588 -0.47835901 5.10888212 -2 8 C-3.32 8.33 -4.64 8.66 -6 9 C-4.02 6.03 -2.04 3.06 0 0 Z " fill="#041C54" transform="translate(841,651)"/>
</svg>
